<?xml version="1.0" encoding="utf-8"?>
<!-- Generator: Adobe Illustrator 16.0.0, SVG Export Plug-In . SVG Version: 6.00 Build 0)  -->
<!DOCTYPE svg PUBLIC "-//W3C//DTD SVG 1.1 Tiny//EN" "http://www.w3.org/Graphics/SVG/1.1/DTD/svg11-tiny.dtd">
<svg version="1.1" baseProfile="tiny" xmlns="http://www.w3.org/2000/svg" xmlns:xlink="http://www.w3.org/1999/xlink" x="0px"
	 y="0px" width="677.831px" height="668.83px" viewBox="0 0 677.831 668.83" xml:space="preserve">
<g id="BG">
</g>
<g id="Object">
	<g>
		<g>
			<path fill="#FFFFFF" d="M296.437,645.186l-10.792-1.844c-23.606-4.035-47.121-10.965-69.891-20.6l-10.107-4.277l5.783-62.2
				l-34.71-23.75l-55.856,27.81l-7.635-7.839c-16.773-17.223-31.747-36.691-44.505-57.865l-5.669-9.407l41.266-46.883L90.27,398.705
				l-61.545-10.369l-1.525-10.883c-1.621-11.558-2.656-23.197-3.08-34.596c-0.378-12.323,0.02-25.115,1.18-38.116l0.971-10.896
				l60.846-13.707l11.945-40.32L55.51,195.29l5.094-9.668c11.277-21.402,25.158-41.598,41.26-60.027l7.197-8.238l57.255,24.718
				l33.446-25.585l-9.103-61.718l9.818-4.826c21.718-10.676,44.848-18.85,68.745-24.294l10.682-2.434l31.758,53.809l42.064-0.987
				l28.946-55.289l10.778,1.869c23.093,4.005,45.924,10.726,67.859,19.978l10.08,4.251l-5.524,62.165l34.786,23.654l55.766-27.994
				l7.661,7.848c17.108,17.526,32.096,36.917,44.545,57.631l5.625,9.359l-40.959,46.957l14.186,39.597l61.447,10.181l1.621,10.785
				c1.841,12.242,2.94,24.318,3.267,35.892c0.406,11.728,0.088,23.834-0.978,36.916l-0.894,10.977l-60.931,13.813l-11.795,40.436
				l43.815,44.362l-5.076,9.702c-11.163,21.337-25.001,41.578-41.13,60.16l-7.175,8.267l-57.307-24.557l-33.328,25.728l9.286,61.709
				l-9.818,4.85c-21.805,10.773-44.9,19.035-68.644,24.557l-10.697,2.486l-31.867-53.738l-42.047,1.162L296.437,645.186z
				 M237.569,599.182c13.964,5.314,28.169,9.512,42.441,12.541l26.731-51.472l77.338-2.139l29.55,49.832
				c14.27-3.895,28.232-8.891,41.712-14.922l-8.617-57.27l61.235-47.271l53.187,22.791c9.327-11.594,17.691-23.814,24.988-36.511
				l-40.661-41.167l21.681-74.321l56.49-12.807c0.376-7.818,0.435-15.285,0.181-22.603c-0.199-7.049-0.713-14.278-1.536-21.623
				l-57.11-9.462l-26.068-72.766l38.029-43.598c-8.049-12.283-17.107-23.996-27.06-34.993l-51.721,25.964l-63.935-43.475
				l5.128-57.708c-13.27-5.014-26.843-9.015-40.555-11.956l-26.894,51.368l-77.333,1.814L265.314,57.52
				c-14.336,3.842-28.313,8.777-41.752,14.742l8.455,57.323l-61.444,47.003l-53.117-22.932
				c-9.321,11.522-17.709,23.719-25.062,36.441l40.438,41.342l-21.951,74.096l-56.479,12.723c-0.433,8.053-0.534,15.95-0.3,23.583
				c0.251,6.761,0.745,13.663,1.475,20.596l57.073,9.615l25.837,72.866l-38.261,43.47c8.19,12.533,17.25,24.325,27.061,35.227
				l51.833-25.807l63.815,43.663L237.569,599.182z M338.907,482.305c-42.997,0-83.931-18.538-112.306-50.86
				c-26.305-30.097-39.354-68.563-36.769-108.339c2.589-39.827,20.554-76.232,50.585-102.509
				c27.205-24.041,62.238-37.308,98.59-37.308c42.962,0,83.851,18.504,112.179,50.768c26.413,29.983,39.555,68.457,36.985,108.316
				c-2.569,39.885-20.541,76.368-50.603,102.729C410.261,469.089,375.218,482.305,338.907,482.305z M339.008,213.289
				c-29.029,0-57.006,10.596-78.779,29.836c-49.51,43.32-54.445,118.91-11.061,168.553c22.658,25.81,55.375,40.627,89.739,40.627
				c29.021,0,57.032-10.566,78.873-29.751c24.036-21.078,38.4-50.235,40.454-82.11c2.053-31.85-8.451-62.596-29.575-86.575
				C406.01,228.073,373.339,213.289,339.008,213.289z"/>
		</g>
	</g>
</g>
</svg>
